<?xml version="1.0" encoding="UTF-8"?>
<!DOCTYPE svg PUBLIC "-//W3C//DTD SVG 1.1//EN" "http://www.w3.org/Graphics/SVG/1.1/DTD/svg11.dtd">
<!-- Creator: CorelDRAW -->
<svg xmlns="http://www.w3.org/2000/svg" xml:space="preserve" width="4.08333in" height="5.16502in" version="1.1" style="shape-rendering:geometricPrecision; text-rendering:geometricPrecision; image-rendering:optimizeQuality; fill-rule:evenodd; clip-rule:evenodd"
viewBox="0 0 4082.91 5164.48"
 xmlns:xlink="http://www.w3.org/1999/xlink"
 xmlns:xodm="http://www.corel.com/coreldraw/odm/2003">
 <defs>
  <style type="text/css">
   <![CDATA[
    .str1 {stroke:black;stroke-width:83.33;stroke-linecap:round;stroke-linejoin:round;stroke-miterlimit:2.61313}
    .str0 {stroke:black;stroke-width:83.33;stroke-linecap:round;stroke-linejoin:round;stroke-miterlimit:2.61313}
    .fil8 {fill:black}
    .fil3 {fill:black}
    .fil6 {fill:#01652D}
    .fil7 {fill:#B51225}
    .fil5 {fill:#C1C2C1}
    .fil2 {fill:#C3C3C3}
    .fil0 {fill:#EDD423}
    .fil4 {fill:white}
    .fil1 {fill:black;fill-rule:nonzero}
   ]]>
  </style>
 </defs>
 <g id="Layer_x0020_1">
  <metadata id="CorelCorpID_0Corel-Layer"/>
  <g id="_2805048237808">
   <circle class="fil0 str0" cx="2041.46" cy="3123.03" r="1999.79"/>
   <path class="fil1" d="M393.89 3951.71l198.33 -111.06 21.08 37.65 -71.15 171.07 127.09 -71.16 25.18 44.97 -198.33 111.06 -23.08 -41.22 67.28 -164.21 -121.22 67.88 -25.18 -44.97zm-79.21 -182.63l178.69 -167.7 20.07 51.62 -35.77 32.17 33.43 86 47.52 -1.94 19.77 50.86 -241.96 4.94 -21.75 -55.95zm131.46 -55.55l-70.22 63.14 93.29 -3.8 -23.07 -59.34zm-215.92 -217.41l39.99 -11.67 20.99 71.88 178.21 -52.03 14.44 49.48 -178.21 52.03 20.98 71.88 -39.99 11.68 -56.41 -193.24zm-13.43 -111.64l224.25 -37.17 8.43 50.85 -224.25 37.17 -8.43 -50.85zm-20.38 -190.8c-0.46,-35.22 10.89,-63.86 34.05,-85.99 23.21,-22.08 50.34,-33.35 81.45,-33.76 31.6,-0.41 59.13,10.29 82.58,32.08 23.45,21.77 35.43,50.02 35.88,84.63 0.46,35.02 -10.72,63.66 -33.49,85.99 -22.82,22.28 -50.06,33.65 -81.89,34.07 -31.22,0.41 -58.69,-10.15 -82.36,-31.73 -23.67,-21.53 -35.76,-49.96 -36.22,-85.28zm186.63 -2.43c-0.26,-19.55 -6.85,-35.23 -19.83,-46.99 -12.93,-11.81 -29.84,-17.55 -50.67,-17.28 -20.94,0.28 -37.7,6.46 -50.32,18.6 -12.56,12.09 -18.75,27.94 -18.49,47.49 0.26,19.65 6.85,35.38 19.73,47.24 12.93,11.81 29.84,17.6 50.78,17.33 20.83,-0.27 37.58,-6.5 50.2,-18.65 12.68,-12.19 18.86,-28.09 18.6,-47.74zm-156.8 -395.42l225.14 31.33 -5.95 42.74 -160.04 93.33 144.26 20.07 -7.11 51.05 -225.14 -31.33 6.51 -46.79 152.82 -90.21 -137.61 -19.14 7.11 -51.05zm49.41 -199.68l244.36 -18.47 -16.76 52.78 -48.03 2.61 -27.93 87.94 38.22 28.31 -16.51 52.01 -191.51 -147.97 18.17 -57.21zm137.22 39.22l-94.29 5.1 75.02 55.58 19.27 -60.68zm140.03 -242.9l37.83 17.44 -66.01 143.16 -206.43 -95.18 21.58 -46.81 168.59 77.73 44.42 -96.36zm95.19 -86.02l-91.62 -52.18 -146.26 10.54 30.86 -54.18 84.53 -3.61 -39.94 -74.67 30.78 -54.05 65.59 131.21 91.57 52.15 -25.51 44.79zm-45.32 -341.27c21.7,-27.74 48.49,-42.96 80.41,-45.71 31.93,-2.67 60.13,5.54 84.64,24.71 24.9,19.48 39.65,45.07 44.28,76.73 4.64,31.66 -3.71,61.18 -25.04,88.44 -21.58,27.58 -48.24,42.91 -79.97,46.05 -31.74,3.07 -60.1,-5.13 -85.16,-24.74 -24.59,-19.23 -39.39,-44.67 -44.33,-76.31 -4.97,-31.6 3.42,-61.35 25.18,-89.17zm147 115.01c12.05,-15.4 16.73,-31.75 13.97,-49.05 -2.68,-17.3 -12.27,-32.37 -28.67,-45.2 -16.49,-12.9 -33.43,-18.58 -50.87,-17.02 -17.36,1.55 -32.11,10.03 -44.16,25.43 -12.11,15.48 -16.82,31.87 -14.21,49.18 2.68,17.31 12.23,32.41 28.73,45.32 16.4,12.83 33.37,18.47 50.81,16.91 17.51,-1.56 32.29,-10.08 44.4,-25.56zm100.37 -363.32l38.63 -34.12 85.58 96.88c21.99,24.89 31.99,49.72 29.99,74.39 -2.04,24.71 -15.43,48.02 -40.27,69.97 -24.58,21.71 -49.4,32 -74.47,30.95 -25.1,-1.02 -48.4,-13.73 -69.98,-38.17l-85.8 -97.13 38.62 -34.12 86.61 98.04c10.52,11.91 22.46,18.33 35.87,19.23 13.4,0.91 25.81,-3.68 37.28,-13.81 11.93,-10.54 18.23,-22.63 18.88,-36.24 0.68,-13.65 -4.95,-27.21 -16.91,-40.74l-84.04 -95.13zm256.9 -183.98l22.72 34.92 -62.77 40.83 101.22 155.63 -43.2 28.1 -101.23 -155.63 -62.77 40.83 -22.71 -34.92 168.75 -109.76zm243.7 -120.9l93.54 207.17 -46.97 21.21 -37.99 -84.14 -93.67 42.29 37.99 84.14 -46.98 21.21 -93.54 -207.17 46.98 -21.21 37.44 82.93 93.67 -42.29 -37.44 -82.93 46.97 -21.21z"/>
   <path class="fil1" d="M3140.01 1656.77l-25.65 36.29c-14.62,-26.93 -28.58,-45.09 -41.91,-54.52 -7.59,-5.37 -14.65,-8.25 -21.1,-8.59 -6.48,-0.37 -11.34,1.78 -14.61,6.4 -2.53,3.59 -3.33,8.13 -2.31,13.6 0.94,5.5 5.9,15.2 14.86,29.15 8.91,13.92 15.6,25.72 20.03,35.39 4.43,9.66 6.58,20.36 6.44,32.11 -0.16,11.79 -4.49,23.69 -13.05,35.8 -12.19,17.23 -27.84,26.78 -46.98,28.56 -19.14,1.78 -38.44,-4.18 -57.92,-17.95 -21,-14.84 -37.14,-35.17 -48.43,-61.04l28.15 -39.83c5.47,16.24 11.26,29.32 17.35,39.27 6.04,9.92 13.98,18.39 23.76,25.3 16.54,11.7 28.91,11.79 37.02,0.32 2.79,-3.95 3.77,-8.83 2.87,-14.64 -0.83,-5.83 -5.82,-15.75 -14.92,-29.66 -9.07,-13.96 -15.78,-25.65 -20.15,-35.13 -4.42,-9.51 -6.47,-20.08 -6.3,-31.8 0.22,-11.69 4.68,-23.7 13.44,-36.08 11.29,-15.97 26.25,-24.71 44.89,-26.3 18.64,-1.52 37.78,4.66 57.38,18.52 18.07,12.77 33.81,31.04 47.14,54.82zm53.39 268.85l-27.18 31.57 -115.56 -99.51 148.33 -172.25 113.94 98.12 -27.18 31.57 -74.89 -64.49 -31.1 36.12 71.45 61.53 -27.19 31.57 -71.45 -61.52 -35.67 41.42 76.5 65.88zm171.93 -90.86l61.05 69.11c13.25,15 19.23,31.42 17.99,49.24 -1.32,17.81 -8.75,32.73 -22.32,44.72 -18.82,16.62 -40.58,20.01 -65.31,10.22 3.13,11.19 -0.76,27.84 -11.6,49.88 -10.88,22.09 -21.01,43.09 -30.37,62.96l-37.33 -42.27c3.38,-7.5 10.17,-21.38 20.32,-41.61 10.23,-20.22 15.6,-34.61 16.14,-42.98 0.56,-8.44 -1.38,-15.16 -5.9,-20.27l-9.73 -11.02 -69.2 61.12 -34.12 -38.63 170.36 -150.48zm2.9 66.21l-38.72 34.2 17.93 20.3c5.72,6.48 11.9,10.12 18.62,10.92 6.72,0.81 13.22,-1.56 19.46,-7.08 12.82,-11.33 12.78,-24.3 -0.13,-38.92l-17.16 -19.43zm247.92 254.65l-243.84 53.56 -12.78 -18.32 131.82 -214.2 32.11 46.04 -75.2 119.22 136.16 -31.81 31.74 45.51zm46.87 87.11l-198.32 111.08 -25.19 -44.96 198.32 -111.08 25.18 44.97zm-31.83 299.49l-45.26 20.44c-24.42,-17.36 -42.45,-38.94 -54.09,-64.73 -15.12,-33.48 -16.95,-64.69 -5.52,-93.75 11.44,-29.06 32.08,-50.3 61.96,-63.78 29.87,-13.49 59.9,-14.46 90.2,-2.97 30.25,11.51 53.01,34.11 68.23,67.82 12.14,26.89 16.34,52.39 12.59,76.48l-46.18 20.85c3.86,-29.25 1.18,-54.09 -8.03,-74.49 -9.07,-20.08 -22.39,-33.8 -40.03,-41.14 -17.61,-7.4 -35.61,-6.92 -53.99,1.37 -18.47,8.34 -30.89,21.49 -37.26,39.5 -6.35,17.94 -5.09,36.78 3.76,56.4 4.39,9.72 10.03,18.42 16.86,26.15 6.91,7.75 19.14,18.36 36.75,31.86zm30.1 203.33l-39.93 11.88 -43.5 -146.16 217.86 -64.84 42.9 144.12 -39.93 11.88 -28.19 -94.72 -45.69 13.6 26.9 90.36 -39.93 11.88 -26.89 -90.36 -52.39 15.59 28.8 96.76zm68.25 320.84l-49.52 3.76c-17.03,-24.65 -26.61,-51.09 -28.75,-79.3 -2.78,-36.63 6.15,-66.6 26.82,-90 20.68,-23.41 47.33,-36.33 80.01,-38.8 32.68,-2.48 61.24,6.86 85.79,28 24.51,21.15 38.18,50.16 40.98,87.04 2.23,29.43 -2.53,54.82 -14.28,76.18l-50.52 3.83c13.61,-26.17 19.58,-50.44 17.88,-72.75 -1.67,-21.97 -9.51,-39.41 -23.57,-52.33 -14.02,-12.98 -31.11,-18.67 -51.22,-17.15 -20.22,1.54 -36.37,9.65 -48.51,24.41 -12.09,14.7 -17.34,32.84 -15.72,54.3 0.81,10.63 3.13,20.74 6.92,30.34 3.85,9.64 11.72,23.79 23.67,42.49zm157.45 173.37c-2.67,35.12 -16.51,62.65 -41.54,82.64 -25.08,19.94 -53.1,28.76 -84.12,26.41 -31.52,-2.39 -57.99,-15.49 -79.42,-39.26 -21.43,-23.77 -30.86,-52.96 -28.24,-87.48 2.65,-34.92 16.32,-62.46 40.98,-82.68 24.7,-20.17 52.84,-29.09 84.58,-26.68 31.13,2.36 57.56,15.31 79.22,38.89 21.67,23.54 31.2,52.94 28.53,88.16zm-186.11 -14.11c-1.48,19.5 3.7,35.7 15.59,48.56 11.83,12.9 28.17,20.13 48.93,21.7 20.88,1.58 38.12,-3.09 51.77,-14.07 13.59,-10.93 21.15,-26.17 22.63,-45.66 1.49,-19.6 -3.69,-35.85 -15.46,-48.81 -11.84,-12.91 -28.17,-20.18 -49.05,-21.76 -20.77,-1.57 -38.01,3.15 -51.65,14.12 -13.71,11.02 -21.27,26.3 -22.76,45.9zm164.48 202.44l-20.36 89.94c-4.42,19.51 -14.24,33.97 -29.41,43.39 -15.22,9.35 -31.67,12.05 -49.33,8.05 -24.49,-5.55 -39.96,-21.22 -46.49,-47 -7.24,9.09 -23.03,15.66 -47.25,19.77 -24.28,4.09 -47.24,8.16 -68.83,12.19l12.45 -55c8.07,-1.65 23.29,-4.26 45.64,-7.85 22.39,-3.53 37.2,-7.58 44.3,-12.04 7.17,-4.49 11.49,-9.99 12.99,-16.64l3.25 -14.34 -90.05 -20.39 11.38 -50.27 221.71 50.2zm-52.02 41.07l-50.39 -11.41 -5.98 26.41c-1.91,8.43 -1.24,15.57 2.03,21.49 3.27,5.92 9,9.81 17.12,11.65 16.69,3.78 27.18,-3.84 31.49,-22.86l5.72 -25.28zm-3.01 180.15l-28.62 87.72c-6.49,19.88 -17.98,33.62 -34.49,41.26 -16.5,7.59 -33.41,8.56 -50.73,2.91 -17.95,-5.86 -31.43,-16.68 -40.43,-32.43 -9,-15.75 -10.23,-33.63 -3.72,-53.62l12.73 -39 -86.82 -28.32 15.98 -49 216.1 70.5zm-55.59 36.08l-50.07 -16.33 -7.43 22.77c-6.64,20.37 -1.62,33.28 15.07,38.72 9.4,3.07 16.79,2.45 22.2,-1.8 5.42,-4.24 10.29,-12.9 14.59,-26.06l5.64 -17.29zm-100.17 303.53l-39.33 -20.68c24.79,-18.02 40.97,-34.24 48.56,-48.68 4.33,-8.23 6.26,-15.6 5.75,-22.04 -0.49,-6.48 -3.25,-11.01 -8.26,-13.65 -3.89,-2.04 -8.49,-2.24 -13.79,-0.52 -5.33,1.65 -14.29,7.85 -26.95,18.55 -12.63,10.66 -23.46,18.84 -32.46,24.49 -9,5.66 -19.33,9.19 -30.98,10.59 -11.71,1.38 -24.08,-1.35 -37.2,-8.26 -18.68,-9.83 -30.2,-24.1 -34.46,-42.84 -4.27,-18.74 -0.89,-38.66 10.21,-59.77 11.97,-22.76 30,-41.42 54.18,-56l43.17 22.69c-15.39,7.55 -27.6,15.01 -36.66,22.34 -9.04,7.29 -16.4,16.27 -21.97,26.87 -9.43,17.93 -7.91,30.2 4.53,36.74 4.28,2.25 9.25,2.58 14.89,0.93 5.67,-1.59 14.85,-7.83 27.45,-18.68 12.65,-10.81 23.36,-19 32.19,-24.58 8.85,-5.62 19.06,-9.05 30.7,-10.41 11.61,-1.31 24.1,1.54 37.53,8.6 17.31,9.1 27.93,22.79 31.95,41.06 3.94,18.28 0.31,38.07 -10.85,59.31 -10.3,19.59 -26.35,37.58 -48.18,53.91z"/>
   <path class="fil1" d="M1027.18 4433.94l-17.99 22.95c-8.71,-18.13 -17.26,-30.49 -25.69,-37.1 -4.8,-3.77 -9.33,-5.88 -13.55,-6.31 -4.24,-0.45 -7.5,0.8 -9.79,3.72 -1.78,2.26 -2.44,5.22 -1.96,8.84 0.44,3.63 3.38,10.15 8.79,19.58 5.39,9.41 9.39,17.37 11.98,23.85 2.59,6.48 3.65,13.56 3.18,21.26 -0.49,7.72 -3.72,15.38 -9.73,23.04 -8.55,10.9 -19.12,16.64 -31.72,17.19 -12.6,0.54 -25.06,-4 -37.37,-13.65 -13.28,-10.42 -23.2,-24.26 -29.75,-41.59l19.75 -25.19c3.05,10.83 6.43,19.59 10.09,26.3 3.64,6.7 8.56,12.51 14.75,17.36 10.46,8.2 18.56,8.67 24.25,1.41 1.96,-2.5 2.76,-5.66 2.36,-9.5 -0.35,-3.85 -3.3,-10.51 -8.81,-19.93 -5.49,-9.45 -9.51,-17.32 -12.06,-23.68 -2.59,-6.38 -3.59,-13.37 -3.09,-21.05 0.53,-7.65 3.85,-15.38 9.99,-23.21 7.92,-10.09 18.01,-15.34 30.28,-15.77 12.27,-0.39 24.61,4.29 37.01,14.01 11.43,8.96 21.14,21.45 29.1,37.47zm33.26 163.2l-15.82 22.3 -81.63 -57.88 86.28 -121.68 80.5 57.07 -15.82 22.3 -52.9 -37.52 -18.09 25.51 50.48 35.79 -15.82 22.3 -50.47 -35.78 -20.75 29.26 54.05 38.32zm86.55 -90.03l51.09 32.43c11.09,7.04 17.85,16.3 20.32,27.75 2.42,11.47 0.46,22.23 -5.91,32.26 -8.83,13.92 -21.93,20.02 -39.3,18.36 4.02,6.48 4.6,17.69 1.79,33.56 -2.83,15.91 -5.38,31 -7.66,45.22l-31.24 -19.83c0.76,-5.35 2.51,-15.33 5.22,-29.93 2.76,-14.62 3.52,-24.66 2.33,-30.04 -1.19,-5.42 -3.64,-9.3 -7.42,-11.7l-8.15 -5.17 -32.47 51.15 -28.55 -18.12 79.94 -125.94zm13.9 41.2l-18.17 28.62 15.01 9.53c4.78,3.04 9.35,4.2 13.73,3.49 4.39,-0.72 8.05,-3.4 10.98,-8.01 6.02,-9.48 3.62,-17.65 -7.18,-24.51l-14.36 -9.12zm193.31 74.61l-125.35 105.49 -13.01 -6.75 11.26 -164.66 32.7 16.96 -7.33 92.21 69.41 -60.01 32.32 16.76zm39.39 16.34l-61.92 135.71 -30.77 -14.04 61.92 -135.71 30.77 14.04zm101.29 151.16l-11.79 30.39c-19.41,3.1 -37.78,1.3 -55.08,-5.42 -22.47,-8.72 -37.69,-22.49 -45.7,-41.35 -8.01,-18.86 -8.12,-38.3 -0.33,-58.35 7.77,-20.05 21.39,-34.32 40.85,-42.88 19.45,-8.53 40.5,-8.42 63.13,0.36 18.05,7 31.74,17.01 41.07,30.01l-12.02 31c-11.64,-15.47 -24.33,-25.86 -38.02,-31.17 -13.47,-5.23 -26.02,-5.53 -37.66,-0.85 -11.64,4.63 -19.86,13.14 -24.64,25.47 -4.81,12.4 -4.58,24.27 0.72,35.63 5.29,11.31 14.54,19.55 27.71,24.66 6.52,2.53 13.17,4.02 19.92,4.48 6.79,0.45 17.4,-0.2 31.86,-1.99zm113.96 50.38l-7.78 26.21 -95.93 -28.49 42.46 -142.99 94.59 28.09 -7.78 26.21 -62.17 -18.46 -8.9 29.98 59.31 17.61 -7.78 26.21 -59.31 -17.61 -10.21 34.39 63.51 18.86zm155.58 -93.19l33.84 157.21 -35.81 -6.18 -5.99 -31 -59.66 -10.29 -14.99 27.38 -35.28 -6.09 79.07 -137.73 38.82 6.7zm-13.23 92.71l-11.75 -60.84 -29.43 53.74 41.17 7.1zm211.12 -70.49l-11.29 148.74 -28.24 -2.14 -67.68 -100.99 -7.23 95.31 -33.72 -2.56 11.29 -148.74 30.92 2.35 65.34 96.39 6.9 -90.9 33.72 2.56zm16.07 2.42l59.83 -1.17c23.14,-0.45 41.54,6.15 55.28,19.81 13.7,13.62 20.78,31.5 21.21,53.55 0.45,23.14 -6.02,41.42 -19.39,54.93 -13.36,13.46 -32.69,20.43 -57.95,20.93l-56.06 1.1 -2.92 -149.14zm34.35 26.67l1.85 94.47 22.04 -0.43c14.32,-0.28 25.18,-4.83 32.57,-13.62 7.42,-8.79 10.98,-20.27 10.7,-34.45 -0.29,-14.65 -4.36,-26.13 -12.18,-34.4 -7.85,-8.27 -18.94,-12.28 -33.33,-12l-21.65 0.42zm298 -49.26l19.64 147.87 -33.53 4.45 -7.97 -60.06 -66.86 8.88 7.97 60.06 -33.52 4.45 -19.63 -147.87 33.52 -4.45 7.86 59.19 66.86 -8.88 -7.86 -59.19 33.52 -4.45zm114.56 -23.47l32.95 -7.61 19.08 82.65c4.91,21.25 2.91,38.69 -5.97,52.3 -8.9,13.61 -23.91,22.88 -45.11,27.77 -20.97,4.84 -38.51,3.02 -52.64,-5.43 -14.16,-8.44 -23.63,-23.06 -28.44,-43.9l-19.13 -82.87 32.95 -7.61 19.31 83.64c2.34,10.16 7.23,17.6 14.68,22.32 7.45,4.72 16.04,5.95 25.83,3.69 10.18,-2.35 17.6,-7.35 22.23,-15.01 4.66,-7.66 5.65,-17.24 2.98,-28.78l-18.73 -81.16zm134.79 19.67l23.68 -66.25 28.04 -9.41 47.48 141.41 -32.06 10.77 -29.64 -88.29 -20.01 56.05 -4.55 1.53 -49.75 -32.63 29.64 88.29 -32.06 10.77 -47.48 -141.41 27.91 -9.37 58.8 38.56zm105.15 -96.77l54.41 138.89 -31.49 12.34 -54.41 -138.89 31.49 -12.34zm166.53 59.53l11.25 24.91 -94.27 42.59 -61.41 -135.94 30.82 -13.92 50.16 111.02 63.46 -28.67zm-10.98 -133.43l69.23 132.12 -29.96 15.7 -69.23 -132.13 29.96 -15.7zm129.44 -73.26l13.5 23.77 -42.73 24.27 60.16 105.94 -29.41 16.7 -60.16 -105.93 -42.73 24.27 -13.5 -23.78 114.87 -65.23zm129.69 87.58l-39.85 -56.56 -89.81 -34.57 33.45 -23.56 51.2 21.45 -2.88 -55.49 33.37 -23.51 2.33 96.23 39.83 56.53 -27.65 19.48z"/>
   <g>
    <circle class="fil2 str1" cx="2041.46" cy="3123.03" r="1453.32"/>
    <circle class="fil3" cx="775.08" cy="4311.61" r="61.29"/>
    <circle class="fil3" cx="3307.84" cy="4311.61" r="61.29"/>
    <g>
     <path class="fil4" d="M1536.81 2712.88c8.02,19.93 -14.11,50.97 96.19,-5.87 273.44,-140.91 280.3,102.25 659.37,-24.25 219.46,-73.24 345.67,-126.71 261.1,142.75l-178.59 312.15c-60.83,67.58 -37.86,18.63 -189.8,55.68 -68.94,16.81 -128.54,45.86 -207.59,38.79 -84.6,-7.56 -116.42,-51.11 -197.42,-55.63 -143.01,-7.98 -254.21,109.56 -374.77,149.87 -8.31,80.21 -29.57,197.99 -42.31,280.24 -23.04,148.63 27.2,102.36 73.41,242.91 88.89,270.36 301.21,44.83 317.85,40.18 45.42,-12.7 114.44,10.12 165.36,13.96 47.92,-128.62 85.5,-43.99 109.62,-178.95 24.94,-139.49 86.83,-318.24 243.37,-349.92 122.88,-24.86 128.14,54.03 225.56,61.05 44.7,-70.56 78.79,-162.46 112.17,-241.78 92.33,-219.43 48.38,-158.4 139.97,-209.26 28.45,-123.34 35.54,-233.59 73.99,-340.74 80.76,-224.98 103.46,-114.85 195.87,-213.84 33.79,-137.3 -7.42,-138.91 -68.27,-208.81 -170.79,-196.19 -106.38,-221.17 -273.4,-99.91 -64.2,46.61 -104.27,16.6 -167.62,13.66 -124.11,-5.76 -36.22,50.49 -155.45,45.55 -87.36,-3.61 -71.93,-16.66 -147.04,40.63 -98.25,74.95 -192.92,122.77 -321.11,54.51 -198.02,-105.44 -126.66,-17.28 -269.99,39.65 -65.25,-42.79 -92.11,-82.69 -187.72,-106.49 -52.92,-13.17 -202.12,3.98 -249.4,29.28 -64.3,34.42 -58.52,120.25 -103.74,189.16 -41.64,63.44 -52.2,140.96 -39.55,246.23 12.96,107.83 108.3,74.8 67.28,202.16 -21.05,65.35 -72.98,121.27 -97.69,195.46 -54.66,164.07 -60.57,353.62 -32.78,542.69l322.78 11.85 78.53 -836.2c-10.47,-68.12 -101.56,-145.51 -8.68,-218.65 90.19,-71.02 240.52,34.92 170.51,141.88z"/>
     <path class="fil2" d="M2281.58 2123.93c188.08,33.59 86.11,-38.88 283.43,-22.13 137.43,11.66 108.38,-92.96 262.5,-94.87 50.78,51.99 90.2,108.03 131.44,158.74 52.44,64.48 107.32,75.49 109.33,182.5 5.86,312.11 -131.12,108.95 -221.17,365.92 -25.12,71.67 -32.27,168.08 -49.11,241.29 -45.38,197.38 -47.31,84.95 -111.35,187.09 -51.79,82.58 -118.31,285.9 -174.93,391.87 -121.8,6.22 -162.78,-141.6 -294.35,-27.55 -26.65,68.78 -56.91,845.89 -48.85,962.9 334.01,2.61 680.15,-218.24 872.74,-418.8 599.8,-624.57 488.67,-1691.25 -328.91,-2160.9 -323.9,-186.06 -286.34,-87.61 -424.66,-14.38l-6.14 248.29z"/>
     <path class="fil5" d="M1064.48 2854.3c-79.15,-138.81 -110.48,-306.09 -17.95,-456.22 66.13,-107.28 8.68,-230.43 326.72,-236.57 119.66,-2.31 188,81.85 260.34,99.5 91.39,-70.68 70.92,-89.3 205.11,-68.49l-15.64 -306.85 -140.54 -113.59c-146.6,10.03 -344.59,130.52 -443.16,199.25 -137.7,96.01 -216.18,181.06 -310.54,308.68 -418.52,566.03 -327.95,1358.99 151.57,1812.56 159.36,150.74 534.12,392.55 834.34,381 15.89,-72.78 4.59,-409.16 -20.64,-458.57 -16.59,-12.86 -4.29,-7.16 -32.06,-18.01 -131.73,-51.48 -142.55,45.31 -222.77,74.71 -180.63,66.22 -231.94,-191.42 -275.74,-246.19 -153.9,-192.46 -199.11,-90.3 -402.88,-102.81 -132.63,-602.98 37.59,-623.95 103.82,-868.4z"/>
     <path class="fil6" d="M1834.07 2713.33c59.32,-0.09 91.01,20.15 151.47,31 58.79,10.56 111.79,7.57 176.59,12.48l-84.35 428.14c-100.77,32.04 -179.66,-4.98 -255.06,-45.87l11.34 -425.75zm-297.26 -0.45c-35.43,23.35 -14.34,-5.14 -47.28,44.73 -10.66,16.15 -24.5,56.25 -35.3,79.96 57.87,-41.5 8.79,-17.12 62.33,-30.91 6.48,107.49 20.4,325.73 -0.69,422.83l-113.52 49.76c2.02,2.88 6.74,3.35 7.01,7.88 0.56,9.54 17.55,6.22 -4.07,39.24 120.55,-40.32 231.76,-157.85 374.77,-149.87 81,4.52 112.82,48.07 197.42,55.63 79.05,7.07 138.65,-21.98 207.59,-38.79 151.94,-37.04 128.97,11.9 189.8,-55.68l178.59 -312.15c84.57,-269.46 -41.64,-215.99 -261.1,-142.75 -379.07,126.51 -385.93,-116.66 -659.37,24.25 -110.3,56.84 -88.17,25.8 -96.19,5.87z"/>
    </g>
    <path class="fil7" d="M1804.93 261c0,54.91 -81.56,77.05 -81.56,228.38l-48.94 0c-1.36,-60.9 -20.41,-127 -32.62,-179.44l-32.63 0c0,156.08 -79.1,538.31 81.57,538.31 37.36,0 18.97,-5.53 65.25,-16.31 14.49,-62.2 16.31,-64.85 16.31,-146.82 79.75,21.3 20.57,51.5 114.19,114.19 59.67,-15.94 34.19,-17.21 81.56,-48.94 28.36,42.34 16.6,43.53 81.57,48.94 36.5,-54.52 32.1,-58.2 48.94,-130.5 113.95,30.43 -15.83,54.36 97.88,130.5 74.56,-49.93 34.76,-74.67 81.56,-163.13 84.48,61.9 5.21,130.5 146.82,130.5 125.57,0 24.08,-282.86 96.78,-539.41 30.17,-106.45 63.88,-51.31 66.35,-162.03 -121.22,28.24 -176.16,144.47 -228.38,179.44 -67.77,-45.39 -51.14,-79.07 -163.12,-81.56 -5.28,-63.38 -14.72,-42.5 -16.31,-114.19 -76.2,20.35 -62.54,81.48 -81.56,163.12 -86.74,-20.21 -65.6,-23.4 -93.65,-102.1 -33.61,-94.34 -66.25,-109.96 -134.73,-109.96 -96.99,0 -16.53,38.96 10.92,68.85 25.54,27.8 61.03,107.75 39.62,128.87 -34.05,33.58 9.92,16.26 -54.83,-30.31 -121.7,-87.56 -60.96,42.9 -60.96,93.58z"/>
    <path class="fil8" d="M1405.29 3326.38c21.62,-33.02 4.63,-29.7 4.07,-39.24 -0.26,-4.53 -4.99,-5 -7.01,-7.88 21.86,-89.14 76.56,-368.77 51.87,-441.68 10.81,-23.71 24.64,-63.81 35.3,-79.96 32.94,-49.87 11.85,-21.38 47.28,-44.73 70.01,-106.97 -80.33,-212.9 -170.51,-141.88 -92.88,73.14 -1.78,150.53 8.68,218.65l-78.53 836.2 -322.78 -11.85c-27.79,-189.07 -21.88,-378.62 32.78,-542.69 24.71,-74.19 76.65,-130.11 97.69,-195.46 41.01,-127.36 -54.32,-94.33 -67.28,-202.16 -12.66,-105.27 -2.09,-182.79 39.55,-246.23 45.22,-68.91 39.44,-154.74 103.74,-189.16 47.27,-25.3 196.48,-42.45 249.4,-29.28 95.62,23.8 122.48,63.7 187.72,106.49 143.34,-56.93 71.97,-145.08 269.99,-39.65 128.2,68.26 222.86,20.44 321.11,-54.51 75.11,-57.29 59.68,-44.24 147.04,-40.63 119.23,4.93 31.34,-51.32 155.45,-45.55 63.35,2.94 103.43,32.96 167.62,-13.66 167.01,-121.26 102.61,-96.28 273.4,99.91 60.84,69.9 102.06,71.51 68.27,208.81 -92.41,98.99 -115.11,-11.15 -195.87,213.84 -38.46,107.15 -45.54,217.4 -73.99,340.74 -91.6,50.85 -47.65,-10.17 -139.97,209.26 -33.37,79.32 -67.46,171.22 -112.17,241.78 -97.41,-7.02 -102.68,-85.91 -225.56,-61.05 -156.54,31.68 -218.43,210.43 -243.37,349.92 -24.13,134.96 -61.7,50.34 -109.62,178.95 -50.92,-3.83 -119.94,-26.66 -165.36,-13.96 -16.64,4.66 -228.96,230.18 -317.85,-40.18 -46.22,-140.55 -96.45,-94.28 -73.41,-242.91 12.74,-82.25 34,-200.03 42.31,-280.24zm-340.82 -472.07c-66.23,244.46 -236.44,265.43 -103.82,868.4 203.76,12.51 248.97,-89.65 402.88,102.81 43.8,54.77 95.11,312.41 275.74,246.19 80.22,-29.4 91.03,-126.19 222.77,-74.71 27.77,10.85 15.47,5.15 32.06,18.01 25.23,49.41 36.53,385.8 20.64,458.57l0 78.86c36.25,2.85 73.03,4.5 110.35,4.8 50.18,0.4 99.19,-1.7 147.22,-5.71l-3.76 -81.82c-8.06,-117 22.2,-894.12 48.85,-962.9 131.57,-114.05 172.55,33.77 294.35,27.55 56.62,-105.97 123.14,-309.29 174.93,-391.87 64.04,-102.14 65.97,10.29 111.35,-187.09 16.84,-73.22 23.99,-169.63 49.11,-241.29 90.04,-256.97 227.03,-53.82 221.17,-365.92 -2.01,-107.02 -56.9,-118.03 -109.33,-182.5 -41.25,-50.72 -80.66,-106.76 -131.44,-158.74 -154.12,1.91 -125.07,106.53 -262.5,94.87 -197.33,-16.75 -95.36,55.72 -283.43,22.13l6.14 -248.29c68.39,-36.2 93.8,-78.55 141.14,-89.66l-0.01 -0.02 37.94 -36.95 23.14 -52.89c10.68,-93 27.04,-129.3 27.26,-227.72 0.16,-73.49 -5.24,-148.18 6.32,-220.64l2.53 -53.54 4.31 -58.17 -0.55 -28.43 0.02 0c-3.65,-32.8 0.95,-85.51 0.95,-178.19l-946.13 0 0 81.56c0,53.95 6.56,83.87 6.06,102.9l6.92 126.46 0.04 0c5.52,81.15 1.27,162.88 1.56,244.37 0.3,84.14 22.62,143.14 19.81,211.4l63.49 75.96 140.54 113.59 15.64 306.85c-134.19,-20.81 -113.72,-2.2 -205.11,68.49 -72.33,-17.64 -140.67,-101.81 -260.34,-99.5 -318.05,6.15 -260.6,129.29 -326.72,236.57 -92.53,150.13 -61.2,317.4 17.95,456.22z"/>
    <path class="fil4" d="M1822.73 3139.08c75.4,40.9 154.29,77.92 255.06,45.87l84.35 -428.14c-64.8,-4.91 -117.81,-1.91 -176.59,-12.48 -60.46,-10.86 -92.15,-31.1 -151.47,-31l-11.34 425.75z"/>
    <path class="fil4" d="M1454.23 2837.57c24.68,72.91 -30.01,352.55 -51.87,441.68l113.52 -49.76c21.08,-97.11 7.17,-315.34 0.69,-422.83 -53.54,13.79 -4.46,-10.58 -62.33,30.91z"/>
   </g>
  </g>
 </g>
</svg>
